<svg xmlns="http://www.w3.org/2000/svg" viewBox="0 0 100 100" width="300" height="300">
    <!-- Monitor outline with rounded bottom (Strichstärke erhöht, jetzt weiß) -->
    <rect x="10" y="20" width="80" height="50" rx="5" fill="none" stroke="white" stroke-width="3"/>
    <rect x="10" y="65" width="80" height="5" fill="white" rx="2"/>

    <!-- Monitor stand (rounded, scaled 30% larger, now white) -->
    <rect x="45" y="72" width="10" height="6.5" fill="white" rx="2"/>
    <rect x="38" y="78.5" width="24" height="3.9" fill="white" rx="2"/>

    <!-- Screen content: original paper background (now white) -->
    <rect x="25" y="28" width="50" height="40" rx="3" fill="none" stroke="white" stroke-width="1.25"/>

    <!-- Circle (checkmark background, now white) -->
    <circle cx="37.8" cy="44" r="7" fill="none" stroke="white" stroke-width="2.5"/>

    <!-- Checkmark scaled 30% larger, vertically mirrored, lengthened and shifted (now bright green, rounded corners and ends) -->
    <polyline points="30.94,38 38.94,46 50.71,34" fill="none" stroke="lime" stroke-width="3.25" stroke-linejoin="round" stroke-linecap="round"/>

    <!-- Checkmark outline (white background color) to cover the overlapping area -->
    <polyline points="30.94,38 38.94,46 50.71,34" fill="none" stroke="white" stroke-width="0.75"/>

    <!-- First text line extended by 25%, now right-aligned -->
    <line x1="55" y1="36" x2="70" y2="36" stroke="white" stroke-width="1.875"/>

    <!-- Other text lines -->
    <line x1="50" y1="40" x2="70" y2="40" stroke="white" stroke-width="1.875"/>
    <line x1="50" y1="44" x2="70" y2="44" stroke="white" stroke-width="1.875"/>
    <line x1="50" y1="48" x2="70" y2="48" stroke="white" stroke-width="1.875"/>
    <line x1="50" y1="52" x2="70" y2="52" stroke="white" stroke-width="1.875"/>
</svg>